<svg width="149.000000" height="41.000000" viewBox="0 0 149 41" fill="none" xmlns="http://www.w3.org/2000/svg" xmlns:xlink="http://www.w3.org/1999/xlink">
	<desc>
			Created with Pixso.
	</desc>
	<defs/>
	<path id="30% OFF FOR WOMEN" d="M21.88 22.3C26.51 22.3 30.05 25.56 30.05 31.27C30.05 36.98 26.51 40.24 21.88 40.24C17.23 40.24 13.71 36.95 13.71 31.27C13.71 25.56 17.23 22.3 21.88 22.3ZM85.84 22.3C90.47 22.3 94.02 25.56 94.02 31.27C94.02 36.98 90.47 40.24 85.84 40.24C81.19 40.24 77.68 36.95 77.68 31.27C77.68 25.56 81.19 22.3 85.84 22.3ZM3.67 40L-0.02 40L-0.02 22.54L11.53 22.54L11.53 25.58L3.67 25.58L3.67 29.74L10.77 29.74L10.77 32.78L3.67 32.78L3.67 40ZM36.48 40L32.78 40L32.78 22.54L39.67 22.54C43.64 22.54 45.93 24.77 45.93 28.24C45.93 30.63 44.82 32.36 42.84 33.21L46.55 40L42.48 40L39.16 33.81L36.48 33.81L36.48 40ZM61.62 40L58.03 40L53.03 22.54L57.06 22.54L59.95 34.67L60.1 34.67L63.29 22.54L66.74 22.54L69.92 34.69L70.07 34.69L72.96 22.54L76.99 22.54L71.99 40L68.4 40L65.07 28.58L64.94 28.58L61.62 40ZM96.75 40L96.75 22.54L101.3 22.54L106.1 34.27L106.31 34.27L111.11 22.54L115.67 22.54L115.67 40L112.09 40L112.09 28.63L111.94 28.63L107.42 39.91L104.99 39.91L100.47 28.59L100.33 28.59L100.33 40L96.75 40ZM130.5 40L118.7 40L118.7 22.54L130.46 22.54L130.46 25.58L122.39 25.58L122.39 29.74L129.86 29.74L129.86 32.78L122.39 32.78L122.39 36.95L130.5 36.95L130.5 40ZM144.33 22.54L148 22.54L148 40L144.82 40L137.22 29.01L137.1 29.01L137.1 40L133.4 40L133.4 22.54L136.64 22.54L144.17 33.52L144.33 33.52L144.33 22.54ZM36.48 25.56L36.48 30.84L38.98 30.84C41.09 30.84 42.12 29.97 42.12 28.24C42.12 26.5 41.09 25.56 38.96 25.56L36.48 25.56ZM21.88 36.97C24.56 36.97 26.32 34.97 26.32 31.27C26.32 27.57 24.56 25.56 21.88 25.56C19.2 25.56 17.45 27.57 17.45 31.27C17.45 34.97 19.2 36.97 21.88 36.97ZM85.84 36.97C88.52 36.97 90.28 34.97 90.28 31.27C90.28 27.57 88.52 25.56 85.84 25.56C83.16 25.56 81.41 27.57 81.41 31.27C81.41 34.97 83.16 36.97 85.84 36.97Z" fill="#F16D7F" fill-opacity="1.000000" fill-rule="evenodd"/>
	<path id="30% OFF FOR WOMEN" d="M42.28 1.25Q41.96 1.85 41.84 2.64L42.59 2.76Q42.88 2.8 43.04 2.71Q43.19 2.62 43.3 2.34Q43.37 2.01 43.52 1.73Q43.54 1.69 43.57 1.65Q43.7 1.44 43.87 1.27Q43.96 1.18 44.05 1.11Q44.33 0.88 44.7 0.76Q45.08 0.63 45.51 0.63Q45.94 0.63 46.31 0.75Q46.63 0.85 46.88 1.04Q46.92 1.07 46.96 1.11Q46.97 1.12 46.98 1.13Q47.24 1.36 47.38 1.72Q47.54 2.08 47.54 2.58Q47.54 3.03 47.39 3.4Q47.35 3.49 47.3 3.59Q47.16 3.84 46.92 4.03Q46.6 4.29 46.08 4.44Q45.56 4.6 44.83 4.6L44.83 5.64Q45.72 5.64 46.3 5.8Q46.87 5.96 47.19 6.24Q47.42 6.43 47.55 6.67Q47.6 6.78 47.64 6.9Q47.76 7.28 47.76 7.75Q47.76 8.12 47.61 8.51Q47.59 8.57 47.56 8.63Q47.41 8.94 47.16 9.2Q46.86 9.51 46.4 9.71Q45.96 9.91 45.35 9.91Q44.71 9.91 44.28 9.71Q43.87 9.51 43.59 9.22Q43.32 8.93 43.17 8.62Q43.01 8.31 42.91 8.08Q42.85 7.97 42.76 7.9Q42.68 7.84 42.57 7.82Q42.53 7.81 42.48 7.81Q42.3 7.79 42.11 7.87L41.49 8.13Q41.69 8.77 41.98 9.32Q42.19 9.73 42.5 10.06Q42.6 10.17 42.71 10.27Q43.16 10.67 43.81 10.9Q44.46 11.12 45.37 11.12Q46.16 11.12 46.85 10.89Q47.54 10.65 48.06 10.21L48.06 10.21Q48.28 10.03 48.45 9.82Q48.71 9.51 48.89 9.13Q49.19 8.5 49.19 7.71Q49.19 6.83 48.8 6.2Q48.72 6.08 48.62 5.96Q48.06 5.26 46.94 4.97Q47.4 4.83 47.76 4.6Q48.1 4.4 48.34 4.11Q48.37 4.09 48.39 4.06Q48.65 3.74 48.79 3.31Q48.93 2.88 48.93 2.34Q48.93 1.67 48.68 1.13Q48.54 0.82 48.33 0.56Q48.18 0.37 47.99 0.21Q47.55 -0.18 46.93 -0.39Q46.31 -0.6 45.59 -0.6Q44.85 -0.6 44.21 -0.38Q43.71 -0.22 43.3 0.07Q43.19 0.15 43.09 0.24Q43.06 0.26 43.04 0.28Q42.58 0.68 42.28 1.25ZM58.56 7.87Q58.88 6.77 58.88 5.27Q58.88 3.76 58.56 2.66Q58.24 1.55 57.67 0.83Q57.2 0.22 56.58 -0.13Q56.47 -0.19 56.35 -0.24Q56.11 -0.35 55.86 -0.43Q55.32 -0.6 54.72 -0.6Q54.05 -0.6 53.46 -0.4Q53.27 -0.33 53.08 -0.24Q52.99 -0.2 52.91 -0.16Q52.26 0.19 51.76 0.83Q51.2 1.55 50.88 2.66Q50.56 3.76 50.56 5.27Q50.56 6.77 50.88 7.87Q51.2 8.97 51.76 9.69Q52.25 10.32 52.89 10.67Q52.98 10.72 53.08 10.76Q53.25 10.85 53.43 10.91Q54.04 11.12 54.72 11.12Q55.33 11.12 55.89 10.94Q56.12 10.87 56.35 10.76Q56.48 10.7 56.6 10.63Q57.21 10.29 57.67 9.69Q58.24 8.97 58.56 7.87ZM87.93 7.63Q88.34 6.55 88.34 5.27Q88.34 3.98 87.93 2.91Q87.55 1.91 86.89 1.17Q86.84 1.11 86.78 1.05Q86.62 0.88 86.45 0.73Q85.81 0.18 84.99 -0.17Q83.95 -0.6 82.68 -0.6Q81.42 -0.6 80.38 -0.17Q79.6 0.16 78.99 0.67Q78.78 0.85 78.59 1.05Q78.53 1.11 78.48 1.17Q77.82 1.91 77.44 2.91Q77.04 3.98 77.04 5.27Q77.04 6.55 77.44 7.63Q77.81 8.61 78.46 9.34Q78.52 9.41 78.59 9.48Q78.78 9.68 78.98 9.85Q79.6 10.37 80.38 10.69Q81.42 11.12 82.68 11.12Q83.95 11.12 84.99 10.69Q85.82 10.35 86.46 9.79Q86.63 9.64 86.78 9.48Q86.85 9.41 86.91 9.34Q87.56 8.61 87.93 7.63ZM64.93 3.5Q65.14 2.97 65.14 2.3Q65.14 1.61 64.94 1.08Q64.75 0.54 64.41 0.17Q64.24 -0.01 64.03 -0.15Q63.83 -0.29 63.6 -0.39Q63.14 -0.58 62.59 -0.58Q62.11 -0.58 61.68 -0.42Q61.64 -0.41 61.59 -0.39Q61.37 -0.29 61.17 -0.16Q60.97 -0.02 60.79 0.17Q60.45 0.54 60.26 1.08Q60.07 1.61 60.07 2.3Q60.07 2.97 60.26 3.5Q60.45 4.03 60.79 4.4Q60.96 4.58 61.15 4.71Q61.35 4.86 61.59 4.96Q61.64 4.97 61.68 4.99Q62.11 5.15 62.59 5.15Q62.93 5.15 63.25 5.06Q63.41 5.02 63.57 4.96Q63.78 4.87 63.96 4.75Q64.19 4.6 64.37 4.4Q64.72 4.03 64.93 3.5ZM69.22 -0.25Q69.21 -0.24 69.19 -0.23L60.82 11L61.87 11Q62.03 11 62.14 10.93Q62.22 10.88 62.29 10.81Q62.31 10.79 62.32 10.76L70.71 -0.47L69.68 -0.47Q69.49 -0.47 69.38 -0.4Q69.29 -0.33 69.22 -0.25ZM92.11 4.8L92.11 0.8L97.62 0.8L97.62 -0.47L90.56 -0.47L90.56 11L92.11 11L92.11 6.07L96.82 6.07L96.82 4.8L92.11 4.8ZM101.16 4.8L101.16 0.8L106.67 0.8L106.67 -0.47L99.6 -0.47L99.6 11L101.16 11L101.16 6.07L105.87 6.07L105.87 4.8L101.16 4.8ZM63.92 1.41Q64.03 1.77 64.03 2.3Q64.03 2.82 63.92 3.18Q63.81 3.55 63.61 3.78Q63.47 3.94 63.3 4.03Q63.23 4.07 63.15 4.1Q63.14 4.11 63.14 4.11Q62.88 4.2 62.59 4.2Q62.31 4.2 62.07 4.11Q62.05 4.11 62.04 4.1Q62.01 4.09 61.99 4.08Q61.77 3.98 61.59 3.78Q61.4 3.55 61.29 3.18Q61.18 2.82 61.18 2.3Q61.18 1.77 61.29 1.41Q61.4 1.03 61.59 0.8Q61.78 0.57 62.02 0.47Q62.03 0.46 62.04 0.46Q62.09 0.44 62.13 0.43Q62.35 0.35 62.59 0.35Q62.84 0.35 63.07 0.43Q63.11 0.44 63.15 0.46Q63.21 0.48 63.26 0.51Q63.46 0.61 63.61 0.8Q63.81 1.03 63.92 1.41ZM57.18 3.07Q57.4 3.96 57.4 5.27Q57.4 6.58 57.18 7.47Q56.96 8.35 56.59 8.9Q56.22 9.44 55.73 9.68Q55.42 9.83 55.1 9.89Q54.91 9.92 54.72 9.92Q54.52 9.92 54.34 9.89Q54.01 9.83 53.7 9.68Q53.21 9.44 52.84 8.9Q52.47 8.35 52.25 7.47Q52.04 6.58 52.04 5.27Q52.04 3.96 52.25 3.07Q52.47 2.17 52.84 1.63Q53.21 1.08 53.7 0.85Q54.02 0.7 54.35 0.64Q54.53 0.61 54.72 0.61Q54.9 0.61 55.08 0.64Q55.42 0.7 55.73 0.85Q56.22 1.08 56.59 1.63Q56.96 2.17 57.18 3.07ZM86.46 3.37Q86.75 4.21 86.75 5.27Q86.75 6.32 86.46 7.16Q86.17 8 85.64 8.58Q85.49 8.75 85.31 8.89Q84.89 9.25 84.36 9.46Q83.61 9.77 82.68 9.77Q81.76 9.77 81.01 9.46Q80.52 9.26 80.12 8.94Q79.91 8.78 79.72 8.58Q79.19 8 78.9 7.16Q78.62 6.32 78.62 5.27Q78.62 4.21 78.9 3.37Q79.19 2.53 79.72 1.95Q79.92 1.74 80.14 1.56Q80.53 1.26 81.01 1.06Q81.76 0.75 82.68 0.75Q83.61 0.75 84.36 1.06Q84.88 1.27 85.29 1.61Q85.48 1.77 85.64 1.95Q86.17 2.53 86.46 3.37ZM71.27 9.49Q71.48 8.96 71.48 8.29Q71.48 7.6 71.28 7.07Q71.09 6.52 70.75 6.16Q70.6 5.99 70.43 5.87Q70.21 5.7 69.94 5.6Q69.9 5.58 69.86 5.57Q69.43 5.4 68.94 5.4Q68.4 5.4 67.94 5.59L67.93 5.6Q67.73 5.68 67.55 5.8Q67.32 5.95 67.14 6.16Q66.8 6.52 66.6 7.07Q66.41 7.6 66.41 8.29Q66.41 8.96 66.6 9.49Q66.8 10.02 67.14 10.39Q67.31 10.58 67.52 10.72Q67.72 10.85 67.93 10.94Q68.39 11.13 68.94 11.13Q69.33 11.13 69.68 11.02Q69.8 10.99 69.91 10.94Q70.12 10.85 70.31 10.73Q70.53 10.58 70.72 10.39Q71.07 10.02 71.27 9.49ZM70.27 7.39Q70.38 7.76 70.38 8.29Q70.38 8.81 70.27 9.17Q70.16 9.53 69.96 9.76Q69.82 9.92 69.64 10.02Q69.57 10.06 69.5 10.09Q69.49 10.09 69.48 10.09Q69.22 10.19 68.94 10.19Q68.68 10.19 68.45 10.11Q68.42 10.1 68.38 10.09Q68.34 10.07 68.29 10.05Q68.09 9.95 67.93 9.76Q67.74 9.53 67.63 9.17Q67.52 8.81 67.52 8.29Q67.52 7.76 67.63 7.39Q67.74 7.02 67.93 6.79Q68.1 6.58 68.32 6.48Q68.35 6.46 68.38 6.45Q68.45 6.43 68.51 6.41Q68.72 6.35 68.94 6.35Q69.19 6.35 69.41 6.42Q69.46 6.44 69.5 6.45Q69.56 6.48 69.61 6.51Q69.81 6.61 69.96 6.79Q70.16 7.02 70.27 7.39Z" fill="#FFFFFF" fill-opacity="1.000000" fill-rule="evenodd"/>
</svg>
