<svg width="212.000000" height="48.000000" viewBox="0 0 212 48" fill="none" xmlns="http://www.w3.org/2000/svg" xmlns:xlink="http://www.w3.org/1999/xlink">
	<desc>
			Created with Pixso.
	</desc>
	<defs/>
	<path id="Vector" d="M211.5 0.5L211.5 47.5L0.5 47.5L0.5 0.5L211.5 0.5Z" stroke="#FF6A6A" stroke-opacity="1.000000" stroke-width="1.000000"/>
	<path id="Browse All Product" d="M108.45 31L108.45 19.21L107.03 19.21L107.03 31L108.45 31ZM112.23 31L112.23 19.21L110.8 19.21L110.8 31L112.23 31ZM149.36 31L149.36 19.21L147.93 19.21L147.93 23.7Q147.62 23.37 147.25 23.15Q147.12 23.07 146.98 23Q146.45 22.75 145.71 22.75Q144.89 22.75 144.24 23.07Q143.91 23.24 143.63 23.46Q143.36 23.68 143.14 23.96Q142.69 24.53 142.45 25.3Q142.21 26.07 142.21 26.97Q142.21 27.98 142.42 28.76Q142.64 29.53 143.04 30.05Q143.33 30.42 143.7 30.66Q143.85 30.76 144.01 30.84Q144.58 31.11 145.28 31.11Q146.11 31.11 146.75 30.76Q146.78 30.74 146.81 30.73Q146.85 30.71 146.88 30.69Q147.5 30.31 148 29.71L148.13 30.7Q148.16 30.85 148.26 30.92Q148.36 31 148.51 31L149.36 31ZM45.93 19.74Q45.17 19.53 44.12 19.53L40.46 19.53L40.46 31L44.51 31Q45.47 31 46.22 30.76Q46.97 30.52 47.49 30.09Q47.82 29.81 48.05 29.46Q48.17 29.27 48.27 29.06Q48.54 28.46 48.54 27.73Q48.54 26.91 48.17 26.33Q48.05 26.15 47.9 26Q47.27 25.34 46 25.1Q46.55 24.93 46.95 24.66Q47.35 24.39 47.62 24.06Q47.86 23.75 47.99 23.41Q48 23.37 48.01 23.33Q48.03 23.28 48.05 23.23Q48.15 22.89 48.15 22.52Q48.15 21.83 47.91 21.27Q47.83 21.06 47.7 20.87Q47.5 20.57 47.19 20.33Q46.7 19.95 45.93 19.74ZM104.64 31L105.84 31L101.25 19.53L99.68 19.53L95.1 31L96.3 31Q96.47 31 96.59 30.92Q96.61 30.9 96.63 30.89Q96.77 30.77 96.82 30.63Q96.82 30.63 96.82 30.63L97.89 27.86L103.04 27.86L104.11 30.63Q104.16 30.75 104.24 30.84Q104.27 30.87 104.3 30.89Q104.43 31 104.64 31ZM124.24 19.78Q123.44 19.53 122.35 19.53L118.96 19.53L118.96 31L120.51 31L120.51 26.71L122.35 26.71Q123.39 26.71 124.18 26.44Q124.98 26.17 125.52 25.69Q125.79 25.45 126 25.16Q126.2 24.87 126.34 24.55Q126.62 23.88 126.62 23.08Q126.62 22.28 126.36 21.62Q126.23 21.3 126.04 21.02Q125.84 20.73 125.57 20.5Q125.04 20.03 124.24 19.78ZM169.31 30.71Q169.81 31.12 170.66 31.12Q170.9 31.12 171.14 31.09Q171.44 31.04 171.73 30.93Q172.25 30.73 172.62 30.39L172.2 29.71Q172.12 29.58 172.03 29.57Q172.02 29.57 172 29.57Q171.94 29.57 171.85 29.63Q171.77 29.69 171.65 29.76Q171.53 29.83 171.37 29.9Q171.2 29.96 170.98 29.96Q170.7 29.96 170.5 29.84Q170.41 29.78 170.34 29.71Q170.09 29.46 170.09 28.95L170.09 24.08L172.43 24.08L172.43 23.05L170.09 23.05L170.09 20.26L169.37 20.26Q169.25 20.26 169.17 20.32Q169.16 20.32 169.15 20.33Q169.13 20.35 169.11 20.37Q169.06 20.44 169.04 20.53L168.72 23.03L167.39 23.2L167.39 23.77Q167.39 23.92 167.46 24Q167.47 24.01 167.47 24.01Q167.5 24.03 167.53 24.05Q167.6 24.08 167.69 24.08L168.67 24.08L168.67 29.04Q168.67 30.02 169.16 30.56Q169.17 30.57 169.18 30.59Q169.24 30.65 169.31 30.71ZM42 24.67L42 20.76L44.12 20.76Q45.39 20.76 46 21.23Q46.11 21.3 46.19 21.4Q46.61 21.86 46.61 22.71Q46.61 23.14 46.46 23.5Q46.41 23.63 46.33 23.74Q46.2 23.96 45.99 24.12Q45.67 24.38 45.19 24.52Q44.71 24.67 44.05 24.67L42 24.67ZM123.52 25.3Q123.01 25.48 122.35 25.48L120.51 25.48L120.51 20.76L122.35 20.76Q123.72 20.76 124.4 21.37Q124.55 21.52 124.67 21.68Q125.07 22.24 125.07 23.08Q125.07 23.61 124.9 24.05Q124.81 24.28 124.67 24.47Q124.54 24.65 124.37 24.81Q124.03 25.12 123.52 25.3ZM100.81 22.07L102.6 26.74L98.32 26.74L100.12 22.08Q100.3 21.65 100.47 21Q100.55 21.32 100.63 21.59Q100.72 21.87 100.81 22.07ZM52.58 23.22Q52.03 23.68 51.64 24.51L51.55 23.28Q51.51 23.07 51.42 22.98Q51.34 22.89 51.11 22.89L50.29 22.89L50.29 31L51.72 31L51.72 25.87Q51.87 25.46 52.06 25.14Q52.25 24.81 52.49 24.59Q52.62 24.47 52.77 24.38Q52.89 24.31 53.02 24.26Q53.32 24.15 53.71 24.15Q53.98 24.15 54.19 24.19Q54.41 24.24 54.52 24.24Q54.61 24.24 54.67 24.2Q54.74 24.15 54.76 24.04L54.87 22.98Q54.68 22.86 54.44 22.8Q54.21 22.75 53.96 22.75Q53.38 22.75 52.93 22.99Q52.75 23.08 52.58 23.22ZM130.38 23.22Q129.82 23.68 129.44 24.51L129.34 23.28Q129.31 23.07 129.22 22.98Q129.13 22.89 128.9 22.89L128.08 22.89L128.08 31L129.51 31L129.51 25.87Q129.67 25.46 129.85 25.14Q130.05 24.81 130.28 24.59Q130.41 24.47 130.56 24.38Q130.68 24.31 130.81 24.26Q131.12 24.15 131.5 24.15Q131.77 24.15 131.99 24.19Q132.2 24.24 132.31 24.24Q132.4 24.24 132.46 24.2Q132.53 24.15 132.56 24.04L132.66 22.98Q132.48 22.86 132.24 22.8Q132 22.75 131.75 22.75Q131.17 22.75 130.72 22.99Q130.54 23.08 130.38 23.22ZM60.8 23.06Q60.09 22.76 59.2 22.76Q58.31 22.76 57.59 23.06Q57.09 23.27 56.69 23.6Q56.52 23.74 56.37 23.9Q55.87 24.44 55.6 25.22Q55.33 25.99 55.33 26.94Q55.33 27.9 55.6 28.67Q55.87 29.44 56.37 29.98Q56.51 30.13 56.66 30.26Q57.07 30.6 57.59 30.82Q58.31 31.11 59.2 31.11Q60.09 31.11 60.8 30.82Q61.3 30.61 61.7 30.28Q61.87 30.14 62.02 29.98Q62.52 29.44 62.79 28.67Q63.06 27.9 63.06 26.94Q63.06 25.99 62.79 25.22Q62.52 24.44 62.02 23.9Q61.86 23.73 61.67 23.58Q61.29 23.26 60.8 23.06ZM81.85 24.35Q81.92 24.31 81.96 24.23L82.28 23.71Q82.27 23.69 82.25 23.68Q81.8 23.26 81.18 23.02Q80.55 22.76 79.75 22.76Q79.06 22.76 78.52 22.96Q77.99 23.15 77.62 23.47Q77.35 23.71 77.18 23.99Q77.11 24.11 77.06 24.23Q76.96 24.45 76.91 24.68Q76.87 24.89 76.87 25.12Q76.87 25.64 77.05 26Q77.19 26.29 77.41 26.51Q77.47 26.56 77.52 26.61Q77.82 26.86 78.2 27.02Q78.55 27.18 78.92 27.3Q78.95 27.31 78.97 27.32Q79.37 27.44 79.75 27.56Q80.13 27.67 80.43 27.83Q80.72 27.99 80.9 28.21Q80.93 28.24 80.95 28.28Q81.08 28.48 81.08 28.76Q81.08 28.94 81.04 29.11Q81.02 29.2 80.98 29.28Q80.97 29.31 80.96 29.33Q80.86 29.54 80.67 29.7Q80.47 29.88 80.15 29.99Q79.84 30.1 79.43 30.1Q78.94 30.1 78.61 29.99Q78.28 29.87 78.05 29.74Q77.83 29.6 77.67 29.49Q77.51 29.38 77.36 29.38Q77.23 29.38 77.14 29.44Q77.05 29.49 76.99 29.6L76.65 30.14Q77.13 30.57 77.82 30.85Q78.51 31.12 79.35 31.12Q80.1 31.12 80.67 30.92Q81.24 30.72 81.63 30.37Q81.85 30.18 82.01 29.94Q82.13 29.76 82.22 29.55Q82.23 29.53 82.23 29.51Q82.42 29.05 82.42 28.51Q82.42 28.03 82.24 27.68Q82.12 27.45 81.95 27.27Q81.86 27.17 81.76 27.09Q81.47 26.85 81.09 26.69Q80.72 26.53 80.32 26.4Q79.92 26.27 79.54 26.15Q79.17 26.03 78.87 25.88Q78.58 25.73 78.4 25.52Q78.36 25.47 78.32 25.42Q78.22 25.24 78.22 25Q78.22 24.83 78.27 24.68Q78.29 24.61 78.33 24.55Q78.34 24.52 78.36 24.49Q78.46 24.31 78.64 24.17Q78.84 24.01 79.13 23.92Q79.42 23.83 79.78 23.83Q80.19 23.83 80.5 23.92Q80.8 24.01 81.02 24.12Q81.24 24.23 81.4 24.32Q81.55 24.4 81.67 24.4Q81.77 24.4 81.85 24.35ZM90.11 30.42Q90.48 30.18 90.75 29.86L90.35 29.34Q90.3 29.28 90.25 29.24Q90.17 29.2 90.07 29.2Q89.94 29.2 89.75 29.33Q89.56 29.45 89.28 29.6Q89 29.74 88.61 29.86Q88.23 29.99 87.69 29.99Q87.11 29.99 86.65 29.8Q86.46 29.72 86.29 29.61Q86.05 29.45 85.85 29.23Q85.52 28.85 85.33 28.28Q85.14 27.71 85.11 26.95L90.53 26.95Q90.71 26.95 90.78 26.86Q90.79 26.85 90.8 26.83Q90.88 26.72 90.88 26.39Q90.88 25.52 90.62 24.85Q90.36 24.17 89.91 23.71Q89.76 23.56 89.6 23.44Q89.26 23.17 88.84 23.01Q88.22 22.76 87.49 22.76Q86.61 22.76 85.91 23.07Q85.37 23.31 84.96 23.68Q84.83 23.79 84.71 23.92Q84.7 23.94 84.68 23.96Q84.22 24.49 83.96 25.2Q83.71 25.93 83.71 26.78Q83.71 27.83 83.99 28.64Q84.28 29.44 84.8 29.99Q85.03 30.23 85.29 30.42Q85.63 30.66 86.02 30.82Q86.73 31.11 87.57 31.11Q88.01 31.11 88.46 31.03Q88.91 30.96 89.32 30.8Q89.75 30.65 90.11 30.42ZM138.6 23.06Q137.89 22.76 136.99 22.76Q136.1 22.76 135.38 23.06Q134.88 23.27 134.48 23.6Q134.31 23.74 134.16 23.9Q133.66 24.44 133.39 25.22Q133.12 25.99 133.12 26.94Q133.12 27.9 133.39 28.67Q133.66 29.44 134.16 29.98Q134.3 30.13 134.46 30.26Q134.86 30.6 135.38 30.82Q136.1 31.11 136.99 31.11Q137.89 31.11 138.6 30.82Q139.09 30.61 139.49 30.28Q139.66 30.14 139.81 29.98Q140.31 29.44 140.58 28.67Q140.85 27.9 140.85 26.94Q140.85 25.99 140.58 25.22Q140.31 24.44 139.81 23.9Q139.65 23.73 139.47 23.58Q139.08 23.26 138.6 23.06ZM166.04 24.47Q166.11 24.42 166.17 24.33L166.55 23.82Q166.27 23.54 165.95 23.33Q165.69 23.16 165.39 23.04Q164.74 22.76 163.88 22.76Q162.96 22.76 162.25 23.08Q161.75 23.3 161.36 23.65Q161.2 23.79 161.06 23.94Q160.58 24.5 160.33 25.27Q160.08 26.03 160.08 26.94Q160.08 27.93 160.34 28.71Q160.62 29.48 161.1 30.01Q161.36 30.3 161.67 30.52Q161.94 30.7 162.23 30.83Q162.31 30.86 162.38 30.89Q162.97 31.11 163.64 31.11Q164.08 31.11 164.51 31.03Q164.93 30.96 165.32 30.81Q165.71 30.65 166.04 30.42Q166.11 30.37 166.18 30.32Q166.43 30.12 166.64 29.86L166.24 29.34Q166.2 29.28 166.14 29.24Q166.07 29.2 165.97 29.2Q165.83 29.2 165.68 29.33Q165.53 29.45 165.31 29.6Q165.09 29.76 164.76 29.88Q164.42 30 163.9 30Q163.36 30 162.92 29.8Q162.75 29.72 162.61 29.62Q162.36 29.45 162.17 29.21Q161.87 28.82 161.7 28.25Q161.53 27.67 161.53 26.94Q161.53 26.23 161.69 25.67Q161.84 25.1 162.15 24.7Q162.31 24.49 162.52 24.33Q162.7 24.19 162.92 24.09Q163.37 23.87 163.97 23.87Q164.42 23.87 164.73 23.98Q165.04 24.07 165.25 24.19Q165.46 24.32 165.6 24.42Q165.75 24.51 165.87 24.51Q165.98 24.51 166.04 24.47ZM73.29 31L75.92 22.89L74.84 22.89Q74.74 22.89 74.66 22.93Q74.61 22.95 74.58 22.98Q74.52 23.02 74.48 23.08Q74.45 23.13 74.43 23.19L72.84 28.4Q72.77 28.69 72.71 28.96Q72.65 29.23 72.61 29.49Q72.55 29.23 72.47 28.96Q72.4 28.68 72.31 28.4L70.64 23.16Q70.63 23.1 70.6 23.06Q70.56 23 70.5 22.96Q70.49 22.95 70.48 22.94Q70.38 22.87 70.24 22.87L69.61 22.87Q69.51 22.87 69.42 22.92Q69.39 22.93 69.36 22.96Q69.32 22.99 69.29 23.03Q69.25 23.09 69.23 23.16L67.51 28.4Q67.43 28.68 67.35 28.96Q67.28 29.23 67.2 29.49Q67.12 28.98 66.99 28.4L65.44 23.19Q65.43 23.17 65.42 23.15Q65.38 23.05 65.28 22.98Q65.26 22.96 65.23 22.95Q65.13 22.89 64.99 22.89L63.88 22.89L66.5 31L67.57 31Q67.67 31 67.74 30.95Q67.85 30.88 67.89 30.72L69.72 25.23Q69.78 25.04 69.82 24.85Q69.86 24.67 69.9 24.48Q69.94 24.67 69.98 24.85Q70.02 25.04 70.08 25.23L71.88 30.72Q71.93 30.92 72.05 30.97Q72.1 31 72.16 31L73.29 31ZM158.28 31L158.28 22.89L156.85 22.89L156.85 28.86Q156.39 29.39 155.84 29.69Q155.6 29.82 155.34 29.89Q155.01 29.99 154.66 29.99Q153.93 29.99 153.51 29.62Q153.44 29.56 153.37 29.48Q152.96 28.98 152.96 28.06L152.96 22.89L151.53 22.89L151.53 28.06Q151.53 28.75 151.7 29.32Q151.87 29.88 152.22 30.28Q152.3 30.38 152.39 30.46Q152.68 30.74 153.07 30.91Q153.58 31.12 154.25 31.12Q155.09 31.12 155.74 30.77L155.75 30.77Q155.79 30.74 155.84 30.72Q156.44 30.37 156.93 29.83L157.04 30.7Q157.08 30.85 157.18 30.92Q157.28 31 157.43 31L158.28 31ZM89.45 25.15Q89.59 25.56 89.59 26.06L85.16 26.06Q85.31 25 85.9 24.41Q86.02 24.3 86.15 24.2Q86.7 23.81 87.52 23.81Q88.01 23.81 88.39 23.98Q88.65 24.08 88.85 24.25Q88.96 24.34 89.05 24.44Q89.06 24.45 89.06 24.46Q89.32 24.75 89.45 25.15ZM147.07 24.07Q147.53 24.28 147.93 24.82L147.93 28.73Q147.49 29.32 146.97 29.64Q146.94 29.65 146.92 29.67Q146.41 29.96 145.74 29.96Q145.25 29.96 144.87 29.79Q144.78 29.75 144.7 29.7Q144.42 29.54 144.22 29.26Q143.96 28.89 143.82 28.33Q143.68 27.76 143.68 26.97Q143.68 25.48 144.29 24.67Q144.51 24.37 144.8 24.18Q145.31 23.86 146.03 23.86Q146.6 23.86 147.07 24.07ZM60.61 29.58Q60.06 30 59.2 30Q58.32 30 57.76 29.57Q57.55 29.41 57.39 29.19Q56.8 28.39 56.8 26.95Q56.8 26.23 56.94 25.66Q57.09 25.08 57.39 24.69Q57.53 24.5 57.72 24.36Q57.91 24.2 58.14 24.09Q58.6 23.88 59.2 23.88Q60.06 23.88 60.6 24.29Q60.82 24.46 60.99 24.69Q61.59 25.5 61.59 26.95Q61.59 28.39 60.99 29.19Q60.83 29.42 60.61 29.58ZM138.4 29.58Q137.85 30 136.99 30Q136.11 30 135.55 29.57Q135.34 29.41 135.18 29.19Q134.59 28.39 134.59 26.95Q134.59 26.23 134.74 25.66Q134.89 25.08 135.18 24.69Q135.33 24.5 135.51 24.36Q135.7 24.2 135.94 24.09Q136.39 23.88 136.99 23.88Q137.85 23.88 138.39 24.29Q138.62 24.46 138.79 24.69Q139.38 25.5 139.38 26.95Q139.38 28.39 138.79 29.19Q138.62 29.42 138.4 29.58ZM45.63 29.61Q45.15 29.76 44.48 29.76L42 29.76L42 25.77L44.48 25.77Q45.75 25.77 46.38 26.29Q46.62 26.49 46.77 26.74Q47.01 27.15 47.01 27.69Q47.01 28.15 46.87 28.53Q46.81 28.68 46.73 28.81Q46.6 29.02 46.41 29.18Q46.11 29.46 45.63 29.61Z" fill="#F26376" fill-opacity="1.000000" fill-rule="evenodd"/>
</svg>
