<svg width="106.000000" height="41.000000" viewBox="0 0 106 41" fill="none" xmlns="http://www.w3.org/2000/svg" xmlns:xlink="http://www.w3.org/1999/xlink">
	<desc>
			Created with Pixso.
	</desc>
	<defs/>
	<path id="HOT DEAL FOR MEN" d="M21.7 22.3C26.33 22.3 29.88 25.56 29.88 31.27C29.88 36.98 26.33 40.24 21.7 40.24C17.05 40.24 13.54 36.95 13.54 31.27C13.54 25.56 17.05 22.3 21.7 22.3ZM3.5 40L-0.2 40L-0.2 22.54L11.36 22.54L11.36 25.58L3.5 25.58L3.5 29.74L10.59 29.74L10.59 32.78L3.5 32.78L3.5 40ZM36.3 40L32.61 40L32.61 22.54L39.49 22.54C43.46 22.54 45.75 24.77 45.75 28.24C45.75 30.63 44.65 32.36 42.66 33.21L46.37 40L42.3 40L38.99 33.81L36.3 33.81L36.3 40ZM53.92 40L53.92 22.54L58.48 22.54L63.28 34.27L63.49 34.27L68.29 22.54L72.84 22.54L72.84 40L69.26 40L69.26 28.63L69.12 28.63L64.6 39.91L62.16 39.91L57.65 28.59L57.5 28.59L57.5 40L53.92 40ZM87.67 40L75.88 40L75.88 22.54L87.64 22.54L87.64 25.58L79.57 25.58L79.57 29.74L87.03 29.74L87.03 32.78L79.57 32.78L79.57 36.95L87.67 36.95L87.67 40ZM101.51 22.54L105.18 22.54L105.18 40L101.99 40L94.4 29.01L94.27 29.01L94.27 40L90.58 40L90.58 22.54L93.82 22.54L101.35 33.52L101.51 33.52L101.51 22.54ZM36.3 25.56L36.3 30.84L38.8 30.84C40.92 30.84 41.95 29.97 41.95 28.24C41.95 26.5 40.92 25.56 38.78 25.56L36.3 25.56ZM21.7 36.97C24.38 36.97 26.14 34.97 26.14 31.27C26.14 27.57 24.38 25.56 21.7 25.56C19.02 25.56 17.27 27.57 17.27 31.27C17.27 34.97 19.02 36.97 21.7 36.97Z" fill="#F16D7F" fill-opacity="1.000000" fill-rule="evenodd"/>
	<path id="HOT DEAL FOR MEN" d="M37.34 7.63Q37.75 6.55 37.75 5.27Q37.75 3.98 37.34 2.91Q36.96 1.91 36.3 1.17Q36.25 1.11 36.19 1.05Q36.03 0.88 35.86 0.73Q35.23 0.18 34.4 -0.17Q33.36 -0.6 32.09 -0.6Q30.83 -0.6 29.79 -0.17Q29.02 0.16 28.41 0.67Q28.2 0.85 28 1.05Q27.95 1.11 27.89 1.17Q27.23 1.91 26.86 2.91Q26.45 3.98 26.45 5.27Q26.45 6.55 26.86 7.63Q27.22 8.61 27.87 9.34Q27.94 9.41 28 9.48Q28.19 9.68 28.39 9.85Q29.01 10.37 29.79 10.69Q30.83 11.12 32.09 11.12Q33.36 11.12 34.4 10.69Q35.23 10.35 35.87 9.79Q36.04 9.64 36.19 9.48Q36.26 9.41 36.33 9.34Q36.97 8.61 37.34 7.63ZM24.23 11L24.23 -0.47L22.68 -0.47L22.68 4.64L16.49 4.64L16.49 -0.47L14.94 -0.47L14.94 11L16.49 11L16.49 5.78L22.68 5.78L22.68 11L24.23 11ZM43.49 0.83L47.21 0.83L47.21 -0.47L38.23 -0.47L38.23 0.83L41.95 0.83L41.95 11L43.49 11L43.49 0.83ZM62.05 7.61Q62.45 6.55 62.45 5.27Q62.45 3.98 62.05 2.92Q61.69 1.99 61.06 1.29Q60.98 1.2 60.89 1.11Q60.77 0.98 60.63 0.86Q59.97 0.28 59.11 -0.06Q58.06 -0.47 56.8 -0.47L52.52 -0.47L52.52 11L56.8 11Q58.06 11 59.11 10.58Q60.02 10.22 60.7 9.6Q60.8 9.51 60.89 9.42Q60.99 9.32 61.08 9.22Q61.69 8.53 62.05 7.61ZM71.75 11L71.76 9.73L66.24 9.73L66.24 5.82L70.7 5.82L70.7 4.6L66.24 4.6L66.24 0.8L71.75 0.8L71.75 -0.47L64.69 -0.47L64.69 11L71.75 11ZM82.05 11L83.25 11L78.66 -0.47L77.1 -0.47L72.51 11L73.71 11Q73.88 11 74 10.92Q74.02 10.9 74.05 10.89Q74.18 10.77 74.23 10.63Q74.23 10.63 74.23 10.63L75.3 7.86L80.45 7.86L81.52 10.63Q81.57 10.75 81.65 10.84Q81.68 10.87 81.71 10.89Q81.84 11 82.05 11ZM91.26 11L91.26 9.69L86.3 9.69L86.3 -0.47L84.76 -0.47L84.76 11L91.26 11ZM35.87 3.37Q36.16 4.21 36.16 5.27Q36.16 6.32 35.87 7.16Q35.58 8 35.05 8.58Q34.9 8.75 34.73 8.89Q34.31 9.25 33.77 9.46Q33.02 9.77 32.09 9.77Q31.18 9.77 30.42 9.46Q29.93 9.26 29.53 8.94Q29.32 8.78 29.14 8.58Q28.61 8 28.32 7.16Q28.03 6.32 28.03 5.27Q28.03 4.21 28.32 3.37Q28.61 2.53 29.14 1.95Q29.33 1.74 29.56 1.56Q29.95 1.26 30.42 1.06Q31.18 0.75 32.09 0.75Q33.02 0.75 33.77 1.06Q34.29 1.27 34.7 1.61Q34.89 1.77 35.05 1.95Q35.58 2.53 35.87 3.37ZM60.57 3.38Q60.86 4.21 60.86 5.27Q60.86 6.32 60.57 7.16Q60.29 7.99 59.76 8.56Q59.62 8.71 59.47 8.84Q59.03 9.21 58.48 9.44Q57.73 9.74 56.8 9.74L54.07 9.74L54.07 0.79L56.8 0.79Q57.73 0.79 58.48 1.09Q58.99 1.3 59.4 1.63Q59.59 1.79 59.76 1.97Q60.29 2.55 60.57 3.38ZM78.22 2.07L80.01 6.74L75.74 6.74L77.53 2.08Q77.71 1.65 77.88 1Q77.96 1.32 78.05 1.59Q78.13 1.87 78.22 2.07Z" fill="#FFFFFF" fill-opacity="1.000000" fill-rule="evenodd"/>
</svg>
