<svg width="412.000000" height="94.000000" viewBox="0 0 412 94" fill="none" xmlns="http://www.w3.org/2000/svg" xmlns:xlink="http://www.w3.org/1999/xlink">
	<desc>
			Created with Pixso.
	</desc>
	<defs/>
	<path id="Rectangle 16 copy" d="M0 -0.1L12 -0.1L12 91.9L0 91.9L0 -0.1Z" fill="#F16D7F" fill-opacity="1.000000" fill-rule="evenodd"/>
	<path id="THE BRAND OF LUXERIOUS FASHION" d="M39.8 19.73L29.3 19.73L29.3 12.08L59.64 12.08L59.64 19.73L49.14 19.73L49.14 47L39.8 47L39.8 19.73ZM72.66 47L63.18 47L63.18 12.08L72.66 12.08L72.66 25.73L85.2 25.73L85.2 12.08L94.68 12.08L94.68 47L85.2 47L85.2 33.35L72.66 33.35L72.66 47ZM124.27 47L99.18 47L99.18 12.08L124.34 12.08L124.34 19.73L108.66 19.73L108.66 25.73L123.04 25.73L123.04 33.35L108.66 33.35L108.66 39.35L124.27 39.35L124.27 47ZM155.02 47L138.59 47L138.59 12.08L153.73 12.08C161.7 12.08 165.93 15.5 165.93 20.82C165.93 24.67 163.22 27.65 159.18 28.44L159.18 28.8C163.66 28.96 167.29 32.18 167.29 37.1C167.29 42.86 162.6 47 155.02 47ZM180.11 47L170.63 47L170.63 12.08L185.7 12.08C193.46 12.08 198.65 16.51 198.65 23.94C198.65 28.8 196.44 32.18 192.72 33.98L199.81 47L189.52 47L183.38 35.48L180.11 35.48L180.11 47ZM213.75 40.32L211.75 47L201.52 47L213.04 12.08L226 12.08L237.52 47L227.29 47L225.28 40.32L213.75 40.32ZM261.59 12.08L271.06 12.08L271.06 47L263.16 47L250.54 28.66L250.34 28.66L250.34 47L240.86 47L240.86 12.08L248.91 12.08L261.31 30.35L261.59 30.35L261.59 12.08ZM306.38 29.55C306.38 40.44 299.63 47 288.99 47L275.56 47L275.56 12.08L288.86 12.08C299.63 12.08 306.38 18.64 306.38 29.55ZM148.07 19.51L148.07 26.19L151.95 26.19C154.44 26.19 156.18 25.01 156.18 22.85C156.18 20.71 154.44 19.51 152.09 19.51L148.07 19.51ZM180.11 19.66L180.11 28.1L183.45 28.1C186.77 28.1 188.77 26.93 188.77 23.94C188.77 20.94 186.77 19.66 183.45 19.66L180.11 19.66ZM285.04 20.14L285.04 38.94L288.65 38.94C293.83 38.94 296.83 36.83 296.83 29.55C296.83 22.25 293.83 20.14 288.38 20.14L285.04 20.14ZM219.38 21.69L215.91 33.23L223.13 33.23L219.66 21.69L219.38 21.69ZM148.07 32.07L148.07 39.42L152.5 39.42C155.68 39.42 157.27 38.22 157.27 35.89C157.27 33.42 155.51 32.07 152.64 32.07L148.07 32.07ZM40.5 62.4C46.67 62.4 51.4 66.75 51.4 74.36C51.4 81.97 46.67 86.32 40.5 86.32C34.3 86.32 29.61 81.94 29.61 74.36C29.61 66.75 34.3 62.4 40.5 62.4ZM205.61 62.4C211.78 62.4 216.5 66.75 216.5 74.36C216.5 81.97 211.78 86.32 205.61 86.32C199.4 86.32 194.71 81.94 194.71 74.36C194.71 66.75 199.4 62.4 205.61 62.4ZM260.83 69.42L256.11 69.42C255.93 67.59 254.48 66.52 252.13 66.52C249.72 66.52 248.39 67.62 248.39 69.12C248.36 70.79 250.06 71.54 252.08 72L254.16 72.5C258.21 73.42 261.13 75.47 261.14 79.35C261.13 83.61 257.79 86.32 252.11 86.32C246.46 86.32 242.86 83.72 242.73 78.69L247.49 78.69C247.66 81.02 249.49 82.2 252.06 82.2C254.56 82.2 256.16 81.04 256.18 79.34C256.16 77.77 254.76 77.04 252.22 76.42L249.69 75.79C245.76 74.85 243.34 72.88 243.34 69.45C243.33 65.22 247.06 62.4 252.16 62.4C257.34 62.4 260.76 65.27 260.83 69.42ZM59.96 86L55.04 86L55.04 62.72L70.45 62.72L70.45 66.78L59.96 66.78L59.96 72.32L69.42 72.32L69.42 76.38L59.96 76.38L59.96 86ZM96.08 86L81.18 86L81.18 62.72L86.1 62.72L86.1 81.94L96.08 81.94L96.08 86ZM113.71 77.42L113.71 62.72L118.63 62.72L118.63 77.84C118.63 82.92 114.77 86.32 108.99 86.32C103.18 86.32 99.34 82.92 99.34 77.84L99.34 62.72L104.26 62.72L104.26 77.42C104.26 80.07 106.13 82 108.99 82C111.84 82 113.71 80.07 113.71 77.42ZM121.71 62.72L127.29 62.72L131.98 70.65L132.16 70.65L136.88 62.72L142.44 62.72L135.33 74.36L142.6 86L136.94 86L132.16 78.05L131.98 78.05L127.21 86L121.58 86L128.86 74.36L121.71 62.72ZM161.27 86L145.54 86L145.54 62.72L161.22 62.72L161.22 66.78L150.46 66.78L150.46 72.32L160.42 72.32L160.42 76.38L150.46 76.38L150.46 81.94L161.27 81.94L161.27 86ZM170.07 86L165.14 86L165.14 62.72L174.32 62.72C179.61 62.72 182.67 65.7 182.67 70.32C182.67 73.5 181.2 75.82 178.55 76.95L183.5 86L178.07 86L173.65 77.75L170.07 77.75L170.07 86ZM186.14 62.72L191.07 62.72L191.07 86L186.14 86L186.14 62.72ZM234.52 77.42L234.52 62.72L239.44 62.72L239.44 77.84C239.44 82.92 235.57 86.32 229.79 86.32C223.99 86.32 220.14 82.92 220.14 77.84L220.14 62.72L225.07 62.72L225.07 77.42C225.07 80.07 226.94 82 229.79 82C232.65 82 234.52 80.07 234.52 77.42ZM170.07 66.75L170.07 73.79L173.4 73.79C176.22 73.79 177.6 72.63 177.6 70.32C177.6 68 176.22 66.75 173.38 66.75L170.07 66.75ZM40.5 81.96C44.07 81.96 46.42 79.29 46.42 74.36C46.42 69.42 44.07 66.75 40.5 66.75C36.92 66.75 34.6 69.42 34.6 74.36C34.6 79.29 36.92 81.96 40.5 81.96ZM205.61 81.96C209.18 81.96 211.52 79.29 211.52 74.36C211.52 69.42 209.18 66.75 205.61 66.75C202.03 66.75 199.7 69.42 199.7 74.36C199.7 79.29 202.03 81.96 205.61 81.96Z" fill="#222222" fill-opacity="1.000000" fill-rule="evenodd"/>
	<path id="THE BRAND OF LUXERIOUS FASHION" d="M328.4 69.42L323.68 69.42C323.5 67.59 322.05 66.52 319.7 66.52C317.29 66.52 315.96 67.62 315.96 69.12C315.93 70.79 317.62 71.54 319.65 72L321.73 72.5C325.78 73.42 328.7 75.47 328.71 79.35C328.7 83.61 325.36 86.32 319.68 86.32C314.03 86.32 310.43 83.72 310.3 78.69L315.06 78.69C315.22 81.02 317.06 82.2 319.62 82.2C322.12 82.2 323.73 81.04 323.75 79.34C323.73 77.77 322.33 77.04 319.79 76.42L317.26 75.79C313.33 74.85 310.9 72.88 310.91 69.45C310.9 65.22 314.63 62.4 319.73 62.4C324.91 62.4 328.33 65.27 328.4 69.42ZM375.34 62.4C381.52 62.4 386.24 66.75 386.24 74.36C386.24 81.97 381.52 86.32 375.34 86.32C369.14 86.32 364.45 81.94 364.45 74.36C364.45 66.75 369.14 62.4 375.34 62.4ZM276.78 86L271.86 86L271.86 62.72L287.27 62.72L287.27 66.78L276.78 66.78L276.78 72.32L286.24 72.32L286.24 76.38L276.78 76.38L276.78 86ZM293.4 80.69L291.67 86L286.4 86L294.44 62.72L300.78 62.72L308.8 86L303.53 86L301.8 80.69L293.4 80.69ZM336.93 86L332.01 86L332.01 62.72L336.93 62.72L336.93 72.32L346.91 72.32L346.91 62.72L351.83 62.72L351.83 86L346.91 86L346.91 76.38L336.93 76.38L336.93 86ZM355.88 62.72L360.8 62.72L360.8 86L355.88 86L355.88 62.72ZM404.45 62.72L409.35 62.72L409.35 86L405.1 86L394.98 71.35L394.8 71.35L394.8 86L389.88 86L389.88 62.72L394.2 62.72L404.24 77.36L404.45 77.36L404.45 62.72ZM375.34 81.96C378.91 81.96 381.26 79.29 381.26 74.36C381.26 69.42 378.91 66.75 375.34 66.75C371.77 66.75 369.44 69.42 369.44 74.36C369.44 79.29 371.77 81.96 375.34 81.96ZM297.52 68.04L294.65 76.85L300.57 76.85L297.7 68.04L297.52 68.04Z" fill="#F16D7F" fill-opacity="1.000000" fill-rule="evenodd"/>
</svg>
