<svg width="157.000000" height="41.000000" viewBox="0 0 157 41" fill="none" xmlns="http://www.w3.org/2000/svg" xmlns:xlink="http://www.w3.org/1999/xlink">
	<desc>
			Created with Pixso.
	</desc>
	<defs/>
	<path id="LUXIROUS &amp; TRENDY ACCESORIES" d="M25.94 22.3C29.99 22.3 33.03 24.62 33.52 28.65L29.79 28.65C29.51 26.74 28.05 25.56 26.03 25.56C23.33 25.56 21.56 27.64 21.56 31.27C21.56 35 23.36 36.97 26 36.97C27.97 36.97 29.44 35.89 29.79 34.03L33.52 34.05C33.12 37.26 30.42 40.24 25.94 40.24C21.27 40.24 17.82 36.96 17.82 31.27C17.82 25.56 21.33 22.3 25.94 22.3ZM44 22.3C48.04 22.3 51.09 24.62 51.57 28.65L47.84 28.65C47.56 26.74 46.1 25.56 44.08 25.56C41.38 25.56 39.61 27.64 39.61 31.27C39.61 35 41.41 36.97 44.05 36.97C46.02 36.97 47.49 35.89 47.84 34.03L51.57 34.05C51.17 37.26 48.47 40.24 44 40.24C39.33 40.24 35.87 36.96 35.87 31.27C35.87 25.56 39.38 22.3 44 22.3ZM81.93 27.56L78.4 27.56C78.26 26.19 77.18 25.39 75.41 25.39C73.6 25.39 72.61 26.21 72.61 27.34C72.58 28.59 73.85 29.16 75.37 29.5L76.94 29.88C79.97 30.56 82.16 32.1 82.17 35.01C82.16 38.21 79.66 40.24 75.4 40.24C71.16 40.24 68.46 38.29 68.36 34.52L71.93 34.52C72.06 36.26 73.43 37.15 75.35 37.15C77.23 37.15 78.44 36.28 78.45 35C78.44 33.83 77.38 33.28 75.48 32.82L73.58 32.34C70.63 31.63 68.82 30.16 68.82 27.58C68.81 24.41 71.61 22.3 75.44 22.3C79.32 22.3 81.88 24.45 81.93 27.56ZM92.51 22.3C97.13 22.3 100.68 25.56 100.68 31.27C100.68 36.98 97.13 40.24 92.51 40.24C87.85 40.24 84.34 36.95 84.34 31.27C84.34 25.56 87.85 22.3 92.51 22.3ZM153.6 27.56L150.06 27.56C149.93 26.19 148.84 25.39 147.08 25.39C145.27 25.39 144.27 26.21 144.27 27.34C144.25 28.59 145.52 29.16 147.04 29.5L148.6 29.88C151.64 30.56 153.83 32.1 153.84 35.01C153.83 38.21 151.32 40.24 147.06 40.24C142.83 40.24 140.13 38.29 140.03 34.52L143.6 34.52C143.72 36.26 145.1 37.15 147.02 37.15C148.9 37.15 150.1 36.28 150.12 35C150.1 33.83 149.05 33.28 147.14 32.82L145.25 32.34C142.3 31.63 140.48 30.16 140.49 27.58C140.48 24.41 143.28 22.3 147.1 22.3C150.99 22.3 153.55 24.45 153.6 27.56ZM5.29 36.02L4 40L0.04 40L6.07 22.54L10.82 22.54L16.84 40L12.89 40L11.59 36.02L5.29 36.02ZM66.02 40L54.22 40L54.22 22.54L65.98 22.54L65.98 25.58L57.92 25.58L57.92 29.74L65.38 29.74L65.38 32.78L57.92 32.78L57.92 36.95L66.02 36.95L66.02 40ZM107.1 40L103.41 40L103.41 22.54L110.29 22.54C114.26 22.54 116.55 24.77 116.55 28.24C116.55 30.63 115.45 32.36 113.46 33.21L117.17 40L113.1 40L109.79 33.81L107.1 33.81L107.1 40ZM119.16 22.54L122.85 22.54L122.85 40L119.16 40L119.16 22.54ZM137.69 40L125.89 40L125.89 22.54L137.65 22.54L137.65 25.58L129.58 25.58L129.58 29.74L137.05 29.74L137.05 32.78L129.58 32.78L129.58 36.95L137.69 36.95L137.69 40ZM107.1 25.56L107.1 30.84L109.6 30.84C111.72 30.84 112.75 29.97 112.75 28.24C112.75 26.5 111.72 25.56 109.59 25.56L107.1 25.56ZM92.51 36.97C95.18 36.97 96.94 34.97 96.94 31.27C96.94 27.57 95.18 25.56 92.51 25.56C89.82 25.56 88.08 27.57 88.08 31.27C88.08 34.97 89.82 36.97 92.51 36.97ZM8.38 26.53L6.23 33.13L10.67 33.13L8.52 26.53L8.38 26.53Z" fill="#F16D7F" fill-opacity="1.000000" fill-rule="evenodd"/>
	<path id="LUXIROUS &amp; TRENDY ACCESORIES" d="M53.54 7.63Q53.95 6.55 53.95 5.27Q53.95 3.98 53.54 2.91Q53.17 1.91 52.5 1.17Q52.45 1.11 52.39 1.05Q52.24 0.88 52.06 0.73Q51.43 0.18 50.6 -0.17Q49.56 -0.6 48.3 -0.6Q47.03 -0.6 45.99 -0.17Q45.22 0.16 44.61 0.67Q44.4 0.85 44.21 1.05Q44.15 1.11 44.09 1.17Q43.43 1.91 43.06 2.91Q42.65 3.98 42.65 5.27Q42.65 6.55 43.06 7.63Q43.43 8.61 44.07 9.34Q44.14 9.41 44.21 9.48Q44.39 9.68 44.6 9.85Q45.21 10.37 45.99 10.69Q47.03 11.12 48.3 11.12Q49.56 11.12 50.6 10.69Q51.44 10.35 52.07 9.79Q52.24 9.64 52.39 9.48Q52.46 9.41 52.53 9.34Q53.17 8.61 53.54 7.63ZM73.64 1.51Q73.64 1.51 73.65 1.5Q73.73 1.44 73.8 1.32L74.18 0.59Q73.94 0.36 73.68 0.18Q73.27 -0.11 72.79 -0.29Q72 -0.6 71.04 -0.6Q70.18 -0.6 69.52 -0.33Q68.86 -0.07 68.41 0.37Q68.15 0.63 67.95 0.94Q67.82 1.15 67.72 1.38Q67.59 1.71 67.53 2.05Q67.49 2.3 67.49 2.55Q67.49 3.32 67.72 3.83Q67.96 4.35 68.34 4.69Q68.38 4.72 68.41 4.75Q68.77 5.05 69.22 5.25Q69.72 5.47 70.23 5.63Q70.75 5.8 71.24 5.95Q71.74 6.11 72.12 6.33Q72.49 6.54 72.72 6.86Q72.73 6.87 72.74 6.89Q72.98 7.22 72.98 7.74Q72.98 8.21 72.82 8.6Q72.72 8.82 72.59 9Q72.48 9.14 72.36 9.26Q72.06 9.53 71.63 9.68Q71.19 9.83 70.64 9.83Q70.2 9.83 69.85 9.75Q69.5 9.67 69.22 9.54Q68.95 9.41 68.73 9.26Q68.51 9.11 68.34 8.98Q68.18 8.85 68.04 8.77Q67.91 8.68 67.81 8.68Q67.75 8.68 67.7 8.7Q67.65 8.71 67.6 8.75Q67.55 8.78 67.51 8.82Q67.48 8.85 67.45 8.89L67 9.63Q67.1 9.74 67.22 9.84Q67.8 10.38 68.56 10.72Q69.47 11.12 70.59 11.12Q71.5 11.12 72.22 10.84Q72.94 10.56 73.43 10.08Q73.62 9.89 73.78 9.67Q74.02 9.33 74.18 8.93Q74.19 8.89 74.21 8.85Q74.43 8.22 74.43 7.51Q74.43 6.8 74.2 6.32Q74.01 5.93 73.73 5.64Q73.65 5.56 73.57 5.49Q73.18 5.16 72.69 4.94Q72.2 4.71 71.68 4.54Q71.17 4.36 70.68 4.2Q70.18 4.03 69.8 3.81Q69.41 3.59 69.17 3.27Q69.16 3.26 69.16 3.25Q68.94 2.94 68.94 2.48Q68.94 2.12 69.06 1.81Q69.06 1.8 69.07 1.78Q69.12 1.65 69.2 1.54Q69.31 1.36 69.48 1.21Q69.75 0.97 70.14 0.83Q70.54 0.69 71.06 0.69Q71.61 0.69 72 0.83Q72.38 0.96 72.66 1.13Q72.94 1.29 73.12 1.43Q73.31 1.56 73.44 1.56Q73.56 1.56 73.64 1.51ZM89.12 11L90.51 11L88.1 8.55Q88.43 8.07 88.67 7.55Q88.81 7.23 88.91 6.9Q89.1 6.32 89.16 5.73Q89.2 5.41 89.2 5.09L88.33 5.09Q88.23 5.09 88.16 5.14Q88.13 5.16 88.1 5.18Q88.03 5.27 88.01 5.42Q87.95 6 87.77 6.59Q87.74 6.7 87.7 6.8Q87.53 7.28 87.28 7.72L83.98 4.37Q83.68 4.07 83.46 3.8Q83.25 3.52 83.11 3.26Q82.97 3 82.91 2.74Q82.84 2.48 82.84 2.2Q82.84 1.84 82.96 1.53Q83.05 1.32 83.18 1.14Q83.24 1.07 83.31 1Q83.31 0.99 83.32 0.99Q83.55 0.77 83.86 0.64Q84.19 0.51 84.59 0.51Q84.95 0.51 85.23 0.64Q85.51 0.76 85.7 0.94Q85.9 1.12 86.02 1.35Q86.14 1.57 86.2 1.78Q86.28 1.97 86.41 2.02Q86.49 2.05 86.59 2.03L87.48 1.85Q87.47 1.68 87.43 1.52Q87.37 1.21 87.23 0.93Q87.15 0.77 87.05 0.62Q86.87 0.36 86.63 0.15Q86.26 -0.19 85.74 -0.39Q85.22 -0.6 84.59 -0.6Q83.87 -0.6 83.3 -0.38Q82.73 -0.16 82.33 0.23Q82.14 0.4 82 0.6Q81.83 0.84 81.72 1.12Q81.68 1.2 81.65 1.29Q81.51 1.73 81.51 2.21Q81.51 2.52 81.56 2.81Q81.62 3.12 81.74 3.42Q81.97 4 82.46 4.62Q81.91 4.86 81.46 5.19Q81 5.53 80.66 5.96Q80.46 6.21 80.31 6.49Q80.21 6.68 80.14 6.88Q80.12 6.93 80.1 6.98Q79.95 7.43 79.95 7.94Q79.95 8.68 80.25 9.28Q80.46 9.69 80.75 10.01Q80.89 10.15 81.03 10.28Q81.22 10.44 81.42 10.56Q81.75 10.77 82.13 10.91Q82.52 11.04 82.91 11.09Q83.15 11.12 83.39 11.12Q84.56 11.12 85.54 10.7Q86.2 10.41 86.76 9.98Q87.03 9.78 87.27 9.54L88.43 10.71Q88.6 10.88 88.75 10.94Q88.89 11 89.12 11ZM5.52 11L5.52 9.69L0.56 9.69L0.56 -0.47L-0.98 -0.47L-0.98 11L5.52 11ZM12.51 9.53Q11.95 9.76 11.24 9.76Q10.53 9.76 9.96 9.52Q9.51 9.33 9.18 9.01Q9.09 8.93 9.01 8.84Q8.63 8.41 8.42 7.81Q8.22 7.21 8.22 6.49L8.22 -0.47L6.67 -0.47L6.67 6.5Q6.67 7.49 6.99 8.34Q7.25 9.05 7.71 9.6Q7.8 9.71 7.9 9.81Q7.97 9.88 8.04 9.95Q8.59 10.47 9.34 10.78Q10.19 11.13 11.24 11.13Q12.3 11.13 13.15 10.78Q13.91 10.46 14.46 9.93Q14.52 9.87 14.58 9.81Q14.68 9.71 14.77 9.6Q15.22 9.05 15.49 8.34Q15.8 7.49 15.8 6.5L15.8 -0.47L14.26 -0.47L14.26 6.5Q14.26 7.22 14.05 7.82Q13.85 8.42 13.46 8.85Q13.46 8.85 13.46 8.85Q13.37 8.95 13.28 9.03Q12.95 9.34 12.51 9.53ZM25.79 11L27.33 11L23.4 5.03L27.2 -0.47L25.72 -0.47Q25.65 -0.47 25.58 -0.44Q25.54 -0.42 25.51 -0.4Q25.43 -0.33 25.36 -0.22L22.54 3.97Q22.43 4.17 22.37 4.34L19.38 -0.25Q19.31 -0.36 19.23 -0.41Q19.15 -0.47 18.98 -0.47L17.44 -0.47L21.23 5.11L17.28 11L18.72 11Q18.86 11 18.95 10.93Q18.96 10.92 18.97 10.91Q19.07 10.81 19.14 10.7L22.14 6.21Q22.22 6.07 22.28 5.88L25.35 10.7Q25.36 10.71 25.37 10.72Q25.43 10.82 25.52 10.91Q25.52 10.91 25.52 10.91Q25.62 11 25.79 11ZM28.97 11L30.52 11L30.52 -0.47L28.97 -0.47L28.97 11ZM40.54 11L41.92 11L38.58 6.44Q38.36 6.12 38.06 5.96Q38.73 5.8 39.25 5.51Q39.78 5.21 40.14 4.79Q40.3 4.61 40.43 4.4Q40.59 4.14 40.7 3.84Q40.89 3.32 40.89 2.71Q40.89 1.98 40.64 1.39Q40.55 1.18 40.43 0.99Q40.21 0.65 39.88 0.39Q39.36 -0.03 38.57 -0.25Q37.78 -0.47 36.69 -0.47L33.45 -0.47L33.45 11L34.99 11L34.99 6.21L36.17 6.21Q36.5 6.21 36.65 6.3Q36.81 6.38 36.95 6.57L39.92 10.67Q40 10.8 40.12 10.88Q40.29 11 40.54 11ZM61.87 9.53Q61.31 9.76 60.59 9.76Q59.88 9.76 59.31 9.52Q58.87 9.33 58.53 9.01Q58.44 8.93 58.37 8.84Q57.98 8.41 57.77 7.81Q57.57 7.21 57.57 6.49L57.57 -0.47L56.03 -0.47L56.03 6.5Q56.03 7.49 56.34 8.34Q56.61 9.05 57.06 9.6Q57.15 9.71 57.25 9.81Q57.32 9.88 57.4 9.95Q57.95 10.47 58.69 10.78Q59.54 11.13 60.59 11.13Q61.65 11.13 62.5 10.78Q63.26 10.46 63.81 9.93Q63.87 9.87 63.93 9.81Q64.03 9.71 64.12 9.6Q64.57 9.05 64.84 8.34Q65.15 7.49 65.15 6.5L65.15 -0.47L63.61 -0.47L63.61 6.5Q63.61 7.22 63.4 7.82Q63.2 8.42 62.82 8.85L62.81 8.85Q62.73 8.95 62.63 9.03Q62.3 9.34 61.87 9.53ZM99.76 0.83L103.47 0.83L103.47 -0.47L94.5 -0.47L94.5 0.83L98.22 0.83L98.22 11L99.76 11L99.76 0.83ZM112.26 11L113.64 11L110.3 6.44Q110.08 6.12 109.78 5.96Q110.45 5.8 110.97 5.51Q111.5 5.21 111.86 4.79Q112.02 4.61 112.15 4.4Q112.31 4.14 112.42 3.84Q112.61 3.32 112.61 2.71Q112.61 1.98 112.36 1.39Q112.27 1.18 112.15 0.99Q111.93 0.65 111.6 0.39Q111.08 -0.03 110.29 -0.25Q109.5 -0.47 108.41 -0.47L105.17 -0.47L105.17 11L106.71 11L106.71 6.21L107.89 6.21Q108.22 6.21 108.37 6.3Q108.53 6.38 108.67 6.57L111.64 10.67Q111.72 10.8 111.84 10.88Q112.01 11 112.26 11ZM122.26 11L122.27 9.73L116.75 9.73L116.75 5.82L121.21 5.82L121.21 4.6L116.75 4.6L116.75 0.8L122.26 0.8L122.26 -0.47L115.19 -0.47L115.19 11L122.26 11ZM133.72 11L133.72 -0.47L132.36 -0.47L132.36 7.65Q132.36 7.83 132.37 8.02Q132.39 8.22 132.4 8.43L125.77 -0.2Q125.7 -0.29 125.65 -0.34Q125.59 -0.39 125.54 -0.42Q125.48 -0.45 125.41 -0.46Q125.34 -0.47 125.24 -0.47L124.43 -0.47L124.43 11L125.79 11L125.79 2.83Q125.79 2.66 125.79 2.47Q125.78 2.28 125.76 2.07L132.39 10.71Q132.51 10.87 132.64 10.93Q132.76 11 132.95 11L133.72 11ZM146.18 7.61Q146.58 6.55 146.58 5.27Q146.58 3.98 146.18 2.92Q145.82 1.99 145.19 1.29Q145.11 1.2 145.03 1.11Q144.9 0.98 144.76 0.86Q144.1 0.28 143.24 -0.06Q142.19 -0.47 140.93 -0.47L136.65 -0.47L136.65 11L140.93 11Q142.19 11 143.24 10.58Q144.15 10.22 144.83 9.6Q144.93 9.51 145.03 9.42Q145.12 9.32 145.21 9.22Q145.82 8.53 146.18 7.61ZM152.5 11L152.5 6.43L156.7 -0.47L155.33 -0.47Q155.16 -0.47 155.05 -0.39Q155.02 -0.38 155 -0.36Q154.87 -0.24 154.8 -0.11L152.19 4.35Q152.05 4.63 151.94 4.87Q151.83 5.12 151.74 5.36Q151.65 5.12 151.53 4.87Q151.41 4.63 151.27 4.35L148.64 -0.11Q148.55 -0.27 148.43 -0.37Q148.32 -0.47 148.1 -0.47L146.75 -0.47L150.94 6.43L150.94 11L152.5 11ZM52.07 3.37Q52.36 4.21 52.36 5.27Q52.36 6.32 52.07 7.16Q51.78 8 51.26 8.58Q51.1 8.75 50.93 8.89Q50.51 9.25 49.98 9.46Q49.23 9.77 48.3 9.77Q47.38 9.77 46.62 9.46Q46.13 9.26 45.73 8.94Q45.52 8.78 45.34 8.58Q44.81 8 44.52 7.16Q44.23 6.32 44.23 5.27Q44.23 4.21 44.52 3.37Q44.81 2.53 45.34 1.95Q45.53 1.74 45.76 1.56Q46.15 1.26 46.62 1.06Q47.38 0.75 48.3 0.75Q49.23 0.75 49.98 1.06Q50.49 1.27 50.9 1.61Q51.09 1.77 51.26 1.95Q51.78 2.53 52.07 3.37ZM37.81 4.92Q37.3 5.08 36.63 5.08L34.99 5.08L34.99 0.76L36.69 0.76Q38.03 0.76 38.7 1.28Q38.88 1.42 39.02 1.59Q39.38 2.07 39.38 2.82Q39.38 3.32 39.2 3.74Q39.13 3.9 39.04 4.05Q38.89 4.27 38.68 4.46Q38.33 4.76 37.81 4.92ZM109.53 4.92Q109.02 5.08 108.35 5.08L106.71 5.08L106.71 0.76L108.41 0.76Q109.75 0.76 110.42 1.28Q110.61 1.42 110.74 1.59Q111.1 2.07 111.1 2.82Q111.1 3.32 110.92 3.74Q110.85 3.9 110.76 4.05Q110.61 4.27 110.4 4.46Q110.05 4.76 109.53 4.92ZM144.71 3.38Q144.99 4.21 144.99 5.27Q144.99 6.32 144.71 7.16Q144.42 7.99 143.89 8.56Q143.75 8.71 143.6 8.84Q143.16 9.21 142.61 9.44Q141.86 9.74 140.93 9.74L138.2 9.74L138.2 0.79L140.93 0.79Q141.86 0.79 142.61 1.09Q143.12 1.3 143.53 1.63Q143.72 1.79 143.89 1.97Q144.42 2.55 144.71 3.38ZM81.84 6.44Q82.27 5.8 83.11 5.35L86.5 8.76Q86.32 8.93 86.13 9.09Q85.73 9.41 85.25 9.64Q84.53 9.96 83.63 9.96Q83.53 9.96 83.43 9.96Q83.12 9.93 82.82 9.82Q82.55 9.73 82.32 9.58Q82.21 9.5 82.1 9.41Q82.05 9.37 82.01 9.32Q81.76 9.08 81.6 8.75Q81.41 8.35 81.41 7.83Q81.41 7.49 81.5 7.17Q81.6 6.78 81.84 6.44Z" fill="#FFFFFF" fill-opacity="1.000000" fill-rule="evenodd"/>
</svg>
