<svg width="112.000000" height="41.000000" viewBox="0 0 112 41" fill="none" xmlns="http://www.w3.org/2000/svg" xmlns:xlink="http://www.w3.org/1999/xlink">
	<desc>
			Created with Pixso.
	</desc>
	<defs/>
	<path id="NEW ARRIVALS FOR KIDS" d="M23.63 22.3C28.25 22.3 31.8 25.56 31.8 31.27C31.8 36.98 28.25 40.24 23.63 40.24C18.97 40.24 15.46 36.95 15.46 31.27C15.46 25.56 18.97 22.3 23.63 22.3ZM109.59 27.56L106.05 27.56C105.92 26.19 104.83 25.39 103.07 25.39C101.26 25.39 100.26 26.21 100.26 27.34C100.24 28.59 101.51 29.16 103.03 29.5L104.59 29.88C107.63 30.56 109.82 32.1 109.83 35.01C109.82 38.21 107.31 40.24 103.05 40.24C98.82 40.24 96.11 38.29 96.02 34.52L99.59 34.52C99.71 36.26 101.09 37.15 103.01 37.15C104.89 37.15 106.09 36.28 106.11 35C106.09 33.83 105.04 33.28 103.13 32.82L101.24 32.34C98.29 31.63 96.47 30.16 96.48 27.58C96.47 24.41 99.27 22.3 103.09 22.3C106.98 22.3 109.54 24.45 109.59 27.56ZM5.42 40L1.73 40L1.73 22.54L13.28 22.54L13.28 25.58L5.42 25.58L5.42 29.74L12.51 29.74L12.51 32.78L5.42 32.78L5.42 40ZM38.22 40L34.53 40L34.53 22.54L41.41 22.54C45.38 22.54 47.67 24.77 47.67 28.24C47.67 30.63 46.57 32.36 44.58 33.21L48.29 40L44.22 40L40.91 33.81L38.22 33.81L38.22 40ZM59.54 40L55.85 40L55.85 22.54L59.54 22.54L59.54 30.24L59.76 30.24L66.05 22.54L70.47 22.54L63.99 30.36L70.55 40L66.13 40L61.35 32.82L59.54 35.03L59.54 40ZM72.4 22.54L76.09 22.54L76.09 40L72.4 40L72.4 22.54ZM93.85 31.25C93.85 36.71 90.64 40 85.32 40L79.13 40L79.13 22.54L85.37 22.54C90.64 22.54 93.85 25.82 93.85 31.25ZM38.22 25.56L38.22 30.84L40.72 30.84C42.84 30.84 43.87 29.97 43.87 28.24C43.87 26.5 42.84 25.56 40.71 25.56L38.22 25.56ZM23.63 36.97C26.3 36.97 28.06 34.97 28.06 31.27C28.06 27.57 26.3 25.56 23.63 25.56C20.94 25.56 19.2 27.57 19.2 31.27C19.2 34.97 20.94 36.97 23.63 36.97ZM82.82 25.7L82.82 36.83L85.16 36.83C88.45 36.83 90.17 35.14 90.17 31.25C90.17 27.37 88.45 25.7 85.17 25.7L82.82 25.7Z" fill="#F16D7F" fill-opacity="1.000000" fill-rule="evenodd"/>
	<path id="NEW ARRIVALS FOR KIDS" d="M111.19 1.51Q111.2 1.51 111.2 1.5Q111.29 1.44 111.36 1.32L111.73 0.59Q111.5 0.36 111.23 0.18Q110.82 -0.11 110.34 -0.29Q109.55 -0.6 108.59 -0.6Q107.74 -0.6 107.08 -0.33Q106.42 -0.07 105.97 0.37Q105.7 0.63 105.51 0.94Q105.38 1.15 105.28 1.38Q105.14 1.71 105.08 2.05Q105.04 2.3 105.04 2.55Q105.04 3.32 105.28 3.83Q105.52 4.35 105.9 4.69Q105.93 4.72 105.96 4.75Q106.33 5.05 106.78 5.25Q107.27 5.47 107.79 5.63Q108.3 5.8 108.8 5.95Q109.29 6.11 109.68 6.33Q110.04 6.54 110.27 6.86Q110.28 6.87 110.29 6.89Q110.53 7.22 110.53 7.74Q110.53 8.21 110.37 8.6Q110.28 8.82 110.14 9Q110.04 9.14 109.91 9.26Q109.61 9.53 109.18 9.68Q108.75 9.83 108.2 9.83Q107.75 9.83 107.4 9.75Q107.05 9.67 106.77 9.54Q106.5 9.41 106.28 9.26Q106.07 9.11 105.9 8.98Q105.73 8.85 105.6 8.77Q105.47 8.68 105.36 8.68Q105.3 8.68 105.25 8.7Q105.2 8.71 105.16 8.75Q105.11 8.78 105.06 8.82Q105.03 8.85 105 8.89L104.55 9.63Q104.66 9.74 104.77 9.84Q105.35 10.38 106.11 10.72Q107.03 11.12 108.15 11.12Q109.06 11.12 109.77 10.84Q110.49 10.56 110.98 10.08Q111.17 9.89 111.33 9.67Q111.57 9.33 111.73 8.93Q111.75 8.89 111.76 8.85Q111.99 8.22 111.99 7.51Q111.99 6.8 111.75 6.32Q111.56 5.93 111.28 5.64Q111.21 5.56 111.13 5.49Q110.74 5.16 110.25 4.94Q109.75 4.71 109.24 4.54Q108.72 4.36 108.23 4.2Q107.74 4.03 107.35 3.81Q106.97 3.59 106.73 3.27Q106.72 3.26 106.71 3.25Q106.49 2.94 106.49 2.48Q106.49 2.12 106.61 1.81Q106.62 1.8 106.63 1.78Q106.68 1.65 106.75 1.54Q106.87 1.36 107.03 1.21Q107.3 0.97 107.7 0.83Q108.09 0.69 108.61 0.69Q109.16 0.69 109.55 0.83Q109.94 0.96 110.22 1.13Q110.49 1.29 110.68 1.43Q110.86 1.56 111 1.56Q111.11 1.56 111.19 1.51ZM9.04 11L9.04 -0.47L7.67 -0.47L7.67 7.65Q7.67 7.83 7.69 8.02Q7.7 8.22 7.72 8.43L1.08 -0.2Q1.02 -0.29 0.96 -0.34Q0.91 -0.39 0.85 -0.42Q0.79 -0.45 0.72 -0.46Q0.65 -0.47 0.55 -0.47L-0.25 -0.47L-0.25 11L1.11 11L1.11 2.83Q1.11 2.66 1.1 2.47Q1.09 2.28 1.08 2.07L7.71 10.71Q7.83 10.87 7.95 10.93Q8.08 11 8.26 11L9.04 11ZM19.03 11L19.03 9.73L13.51 9.73L13.51 5.82L17.98 5.82L17.98 4.6L13.51 4.6L13.51 0.8L19.03 0.8L19.03 -0.47L11.96 -0.47L11.96 11L19.03 11ZM32.48 11L36.06 -0.47L34.85 -0.47Q34.7 -0.47 34.58 -0.4Q34.54 -0.38 34.51 -0.36Q34.37 -0.24 34.33 -0.1L34.33 -0.1L31.95 7.87Q31.9 8.07 31.85 8.32Q31.8 8.55 31.76 8.82Q31.71 8.55 31.65 8.32Q31.59 8.07 31.52 7.87L28.83 -0.1Q28.78 -0.22 28.7 -0.3Q28.67 -0.34 28.63 -0.36Q28.63 -0.37 28.63 -0.37Q28.5 -0.47 28.3 -0.47L27.85 -0.47Q27.71 -0.47 27.59 -0.41Q27.55 -0.39 27.51 -0.35Q27.37 -0.24 27.32 -0.1L24.63 7.87Q24.56 8.07 24.49 8.33Q24.43 8.58 24.38 8.86Q24.33 8.58 24.28 8.33Q24.23 8.08 24.17 7.87L21.8 -0.1Q21.79 -0.17 21.75 -0.22Q21.71 -0.3 21.62 -0.36Q21.61 -0.38 21.59 -0.39Q21.46 -0.47 21.27 -0.47L19.99 -0.47L23.56 11L24.95 11L27.88 2.25Q27.91 2.12 27.95 1.98Q28 1.83 28.04 1.67Q28.07 1.83 28.11 1.98Q28.15 2.12 28.19 2.25L31.09 11L32.48 11ZM49.24 11L50.44 11L45.85 -0.47L44.28 -0.47L39.7 11L40.9 11Q41.07 11 41.19 10.92Q41.21 10.9 41.23 10.89Q41.37 10.77 41.42 10.63Q41.42 10.63 41.42 10.63L42.49 7.86L47.64 7.86L48.71 10.63Q48.76 10.75 48.84 10.84Q48.87 10.87 48.9 10.89Q49.03 11 49.24 11ZM59.04 11L60.42 11L57.08 6.44Q56.86 6.12 56.56 5.96Q57.23 5.8 57.75 5.51Q58.28 5.21 58.64 4.79Q58.8 4.61 58.93 4.4Q59.09 4.14 59.19 3.84Q59.39 3.32 59.39 2.71Q59.39 1.98 59.14 1.39Q59.05 1.18 58.92 0.99Q58.7 0.65 58.37 0.39Q57.86 -0.03 57.07 -0.25Q56.28 -0.47 55.19 -0.47L51.95 -0.47L51.95 11L53.49 11L53.49 6.21L54.67 6.21Q54.99 6.21 55.15 6.3Q55.31 6.38 55.44 6.57L58.42 10.67Q58.5 10.8 58.62 10.88Q58.79 11 59.04 11ZM69.07 11L70.44 11L67.1 6.44Q66.88 6.12 66.59 5.96Q67.25 5.8 67.77 5.51Q68.3 5.21 68.66 4.79Q68.82 4.61 68.95 4.4Q69.11 4.14 69.22 3.84Q69.41 3.32 69.41 2.71Q69.41 1.98 69.16 1.39Q69.07 1.18 68.95 0.99Q68.73 0.65 68.4 0.39Q67.88 -0.03 67.09 -0.25Q66.3 -0.47 65.21 -0.47L61.97 -0.47L61.97 11L63.51 11L63.51 6.21L64.69 6.21Q65.02 6.21 65.18 6.3Q65.33 6.38 65.47 6.57L68.44 10.67Q68.52 10.8 68.64 10.88Q68.81 11 69.07 11ZM72 11L73.55 11L73.55 -0.47L72 -0.47L72 11ZM81.12 11L85.8 -0.47L84.55 -0.47Q84.42 -0.47 84.31 -0.42Q84.26 -0.39 84.21 -0.35Q84.07 -0.24 84.03 -0.1L80.8 7.99Q80.7 8.26 80.61 8.58Q80.52 8.9 80.44 9.25Q80.36 8.9 80.26 8.58Q80.16 8.26 80.06 7.99L76.83 -0.1Q76.79 -0.21 76.71 -0.29Q76.68 -0.33 76.64 -0.36Q76.63 -0.37 76.62 -0.38Q76.49 -0.47 76.3 -0.47L75.06 -0.47L79.73 11L81.12 11ZM94.56 11L95.76 11L91.18 -0.47L89.61 -0.47L85.03 11L86.23 11Q86.4 11 86.52 10.92Q86.54 10.9 86.56 10.89Q86.7 10.77 86.75 10.63Q86.75 10.63 86.75 10.63L87.82 7.86L92.96 7.86L94.03 10.63Q94.08 10.75 94.17 10.84Q94.19 10.87 94.23 10.89Q94.35 11 94.56 11ZM103.78 11L103.78 9.69L98.82 9.69L98.82 -0.47L97.28 -0.47L97.28 11L103.78 11ZM56.31 4.92Q55.8 5.08 55.12 5.08L53.49 5.08L53.49 0.76L55.19 0.76Q56.53 0.76 57.2 1.28Q57.38 1.42 57.51 1.59Q57.87 2.07 57.87 2.82Q57.87 3.32 57.7 3.74Q57.63 3.9 57.53 4.05Q57.39 4.27 57.17 4.46Q56.83 4.76 56.31 4.92ZM66.34 4.92Q65.82 5.08 65.15 5.08L63.51 5.08L63.51 0.76L65.21 0.76Q66.55 0.76 67.23 1.28Q67.41 1.42 67.54 1.59Q67.9 2.07 67.9 2.82Q67.9 3.32 67.72 3.74Q67.65 3.9 67.56 4.05Q67.41 4.27 67.2 4.46Q66.85 4.76 66.34 4.92ZM45.4 2.07L47.2 6.74L42.92 6.74L44.72 2.08Q44.9 1.65 45.07 1Q45.15 1.32 45.23 1.59Q45.32 1.87 45.4 2.07ZM90.73 2.07L92.53 6.74L88.25 6.74L90.05 2.08Q90.23 1.65 90.39 1Q90.48 1.32 90.56 1.59Q90.65 1.87 90.73 2.07Z" fill="#FFFFFF" fill-opacity="1.000000" fill-rule="evenodd"/>
</svg>
